<svg width="155" height="186" viewBox="0 0 155 186" fill="none" xmlns="http://www.w3.org/2000/svg">
<path d="M26.5685 156.257C28.8986 156.257 30.7874 154.712 30.7874 152.805C30.7874 150.898 28.8986 149.352 26.5685 149.352C24.2385 149.352 22.3496 150.898 22.3496 152.805C22.3496 154.712 24.2385 156.257 26.5685 156.257Z" fill="black"/>
<path d="M150.156 135.632L148.572 134.516C148.451 134.432 136.349 125.814 133.341 115.358L132.67 113.041L131.43 114.986C131.392 115.047 129.672 117.598 124.86 120.592C121.297 96.2579 109.178 67.207 93.2519 54.8206C97.805 55.2623 102.373 54.809 106.78 52.885C109.435 51.7283 108.289 46.5378 105.611 47.7119C101.997 49.29 98.3766 49.7201 94.7631 49.4992C103.634 39.743 110.6 24.7903 110.6 13.857C110.6 11.2298 110.6 6.33853 107.354 6.33853C106.051 6.33853 104.998 7.31503 103.542 8.66353C101.309 10.7299 97.9382 13.857 92.9855 13.857C91.0988 13.857 87.6452 11.4681 84.8698 9.54994C81.5155 7.23366 79.3721 5.8125 77.5702 5.8125C74.5865 5.8125 70.2005 8.70712 66.3303 11.2617C64.7561 12.2993 62.6031 13.7233 62.1574 13.8599C56.5484 13.8599 53.2909 10.756 51.1306 8.70131C49.8713 7.49812 48.9582 6.62625 47.74 6.62625C44.548 6.62625 44.548 11.221 44.548 16.5424C44.548 26.8131 51.0677 40.3707 59.6048 49.4818C54.2258 49.9439 48.9219 51.894 45.1946 56.2272C43.136 58.6162 46.2554 62.4059 48.3067 60.0228C51.4043 56.419 55.4658 54.8758 59.8106 54.5765C59.9341 55.1083 60.0843 55.6314 60.2684 56.1458C42.0655 71.8425 29.1352 109.115 29.1352 134.277C29.1352 136.759 29.295 139.006 29.542 141.122C24.8484 138.619 23.1362 136.425 23.1023 136.376L21.8526 134.647L21.2374 136.826C18.5177 146.429 6.69406 154.758 6.57539 154.842L4.84375 156.048L6.60445 157.19C7.22203 157.591 7.83477 157.943 8.45234 158.324L7.33828 159.251L7.9268 168.086L54.0708 180.188L71.5664 166.758C73.332 166.769 75.1193 166.775 76.9381 166.775L97.3884 180.188L143.62 162.75V153.424L142.397 152.543C143.007 152.078 143.617 151.605 144.225 151.116L145.845 149.817L145.489 149.608L147.55 148.931L147.899 139.236L146.708 138.221C147.342 137.765 147.974 137.3 148.609 136.818L150.156 135.632ZM48.9534 16.5424C48.9534 15.252 48.9679 14.2464 48.9897 13.4647C49.3602 13.8134 49.7913 14.1941 50.2515 14.5865C51.6634 18.6436 54.3348 24.4852 58.8637 28.1645C64.3662 32.6401 63.6348 27.496 66.5701 22.7995C69.5054 18.1059 71.4913 15.6473 76.4077 27.7198C78.5511 32.983 82.1234 18.2745 85.5188 16.1268C86.4173 16.7138 87.3134 17.2602 88.1926 17.7252C94.2812 29.606 97.1027 25.9005 102.511 16.0251C103.998 14.9788 105.218 13.857 106.19 12.959C106.194 13.2293 106.199 13.5286 106.199 13.8628C106.199 23.1919 99.8466 36.5723 92.0676 45.2997C91.7003 44.1796 91.1742 43.1443 90.5127 42.2394C87.3716 37.9702 82.4624 42.7044 80.135 45.8112C76.0057 44.2186 69.2777 39.8331 64.8941 42.3441C63.8024 42.9518 62.7997 43.7673 61.9249 44.7592C54.7562 36.9181 48.9534 25.5982 48.9534 16.5424ZM88.1974 48.4356C87.1115 48.1593 86.0318 47.8492 84.9594 47.5056C86.3108 46.1077 87.5508 45.6194 88.0715 47.6974C88.1272 47.9241 88.1611 48.1827 88.1974 48.4356ZM69.7912 50.2403C68.9895 50.0573 68.1661 49.8916 67.3184 49.7608C66.6757 49.2774 66.0465 48.7685 65.4318 48.235C67.6454 46.4535 71.4623 47.4009 75.1096 48.886C73.3102 49.104 71.5349 49.5748 69.7912 50.2403ZM70.8907 57.9128C69.5345 58.3197 68.0571 58.157 66.7808 57.5467C67.2991 57.2183 67.8222 56.9334 68.3453 56.6457C69.193 57.1369 70.0406 57.5467 70.8907 57.9128ZM26.0933 163.851C20.3168 161.844 14.7118 159.185 9.35328 155.909C12.6398 153.316 19.7988 147.048 22.7099 139.515C24.7055 141.395 29.312 144.824 38.2826 147.457C38.13 147.754 37.9435 148.071 37.7643 148.382C30.1063 145.975 25.7518 142.932 25.6816 142.88L24.6256 142.124L24.1195 143.482C23.4534 145.26 21.8913 145.528 21.0219 145.528C20.7797 145.528 20.6174 145.507 20.5956 145.504L19.731 145.353L19.4162 146.347C18.772 148.376 16.1273 151.026 15.1585 151.878L13.5407 153.302L15.391 154.211C16.0788 154.549 16.2653 154.86 16.275 154.941C16.2992 155.141 16.0062 155.67 15.6938 155.976L14.2842 157.339L15.9238 158.248C19.283 160.108 23.0877 161.649 26.8925 162.919C26.5898 163.276 26.3282 163.581 26.0933 163.851ZM45.6233 153.023C49.0091 153.592 52.7605 153.953 56.8584 153.953H56.8608C57.7133 153.953 58.5779 153.935 59.4595 153.903C59.5182 154.123 59.6021 154.331 59.7089 154.522C59.9244 154.915 60.2151 155.24 60.5832 155.493L54.4026 161.832C54.2848 161.826 54.1669 161.823 54.049 161.823C51.2953 161.823 49.2416 163.038 48.2559 165.2C44.5212 164.628 40.8039 163.904 37.1104 163.029C40.0795 159.859 42.9204 156.519 45.6233 153.023ZM18.1374 156.502C18.3796 155.952 18.537 155.287 18.4523 154.56C18.3718 153.905 18.1099 153.301 17.7087 152.846C18.7962 151.727 20.2953 150 21.1188 148.213C22.9909 148.181 24.536 147.329 25.5096 145.824C27.1492 146.853 30.8426 148.931 36.2991 150.733C34.0685 154.089 31.063 157.897 28.7259 160.727C25.0834 159.571 21.4142 158.176 18.1374 156.502ZM52.6516 168.734L52.1551 168.737C50.0698 168.737 43.1602 168.533 34.0322 166.252C34.3519 165.927 34.6837 165.592 34.9912 165.273C42.3973 167.13 48.3697 167.926 48.8177 167.987L49.7041 168.1L49.9778 167.069C50.576 164.842 52.7823 164.514 54.0466 164.514C54.3929 164.514 54.623 164.54 54.6496 164.543L55.1195 164.604L65.8556 153.595L62.9857 153.482C62.0266 153.441 61.6222 153.183 61.5229 153.005L62.1308 151.096L60.45 151.18C59.2245 151.244 58.0281 151.276 56.8584 151.276H56.8559C53.475 151.276 50.3387 151.009 47.4397 150.587L48.113 149.634C53.9642 150.573 60.9707 151.151 69.4303 151.079C67.4105 154.479 62.373 161.707 52.6516 168.734ZM76.9284 156.106V161.41C75.5504 161.41 74.2087 161.404 72.896 161.393L72.5013 155.423L69.222 155.743C71.4308 152.61 72.3729 150.521 72.4577 150.332L73.3465 148.315L71.4695 148.355C53.5041 148.751 41.787 146.181 34.3906 143.328C33.8505 140.706 33.5381 137.742 33.5381 134.28C33.5381 110.673 46.1101 74.99 62.8016 60.5285C65.7588 63.9608 70.2441 65.4633 74.5066 62.124C75.4414 61.3916 76.2552 60.4326 77.0181 59.4125C77.1997 59.4183 77.3862 59.4677 77.5702 59.4677C78.1805 59.4677 78.8005 59.4067 79.4181 59.3137C80.2004 59.6886 80.9657 60.0664 81.6753 60.4413C85.0732 62.2373 87.9746 61.1213 89.9557 58.6452C105.245 69.7471 117.495 99.1147 120.718 122.853C113.729 126.207 102.641 129.479 85.6254 130.055C88.9821 127.753 91.5009 123.882 90.5951 118.796C89.6433 113.419 85.8991 111.908 82.0216 111.661C82.012 109.136 82.012 106.616 82.0265 104.09C83.2156 104.721 84.3563 105.447 85.3929 106.223C87.2238 107.604 88.8804 104.026 87.0616 102.646C85.4845 101.456 83.8013 100.482 82.0434 99.7425C82.0677 96.8188 82.0798 93.9009 82.0798 90.9831C82.0822 88.3093 78.7715 88.3093 78.7715 90.9831C78.7715 93.5493 78.757 96.1126 78.7376 98.673C76.9754 98.3045 75.1761 98.2682 73.4046 98.5655C73.1166 96.6418 72.7676 94.732 72.3584 92.8402C71.811 90.2652 68.6141 91.3551 69.1687 93.9387C69.5756 95.7958 69.9074 97.6442 70.1811 99.5187C70.0406 99.5827 69.888 99.6146 69.75 99.6902C65.2647 101.82 62.528 107.252 65.8096 112.318C67.3378 114.678 69.3359 115.631 71.5228 115.948C71.6415 119.444 71.7166 122.943 71.8013 126.436C70.3361 125.294 69.0016 123.83 67.7931 122.28C66.2964 120.386 63.9593 123.312 65.4536 125.204C67.4855 127.799 69.6192 129.761 71.9321 131.017C72.0362 134.001 72.184 136.995 72.4262 139.965C72.6393 142.601 75.9524 142.615 75.7369 139.965C75.5327 137.396 75.3817 134.821 75.284 132.243C76.5434 132.505 77.8657 132.572 79.2704 132.412C79.4278 135.161 79.6119 137.91 79.8734 140.66C80.0236 142.235 81.2781 142.854 82.2033 142.534L81.9974 148.242C80.5395 148.399 79.0524 148.544 77.5024 148.666L75.657 148.812L76.6402 150.718C76.7395 150.91 77.856 153.029 80.3481 156.112H76.9284V156.106ZM137.204 136.977C134.16 138.695 130.309 140.27 126.386 141.645C123.973 138.654 120.888 134.664 118.585 131.124C123.717 129.258 126.589 127.334 127.885 126.297C128.909 127.381 130.265 127.945 131.871 127.942C132.404 127.942 132.876 127.881 133.239 127.811C134.402 129.619 136.276 131.705 137.449 132.952C136.894 133.635 136.625 134.391 136.647 135.207C136.666 135.905 136.899 136.498 137.204 136.977ZM119.876 146.527C120.37 147.05 120.881 147.585 121.401 148.126C111.583 151.25 104.276 151.59 102.685 151.622C92.518 144.179 87.248 136.303 85.2161 132.757C93.7241 132.502 100.757 131.578 106.623 130.305C106.862 130.656 107.103 131.005 107.347 131.351C102.633 132.232 97.8808 132.798 93.1138 133.045L91.1594 133.144L92.2347 135.117C92.2323 135.12 92.0143 135.609 90.5709 135.946L88.2241 136.495L99.7619 147.704L100.3 147.53C100.312 147.527 101.329 147.199 102.559 147.199C104.334 147.199 105.548 147.847 106.158 149.114L106.546 149.916L107.299 149.756C111.517 148.833 115.712 147.756 119.876 146.527ZM85.7344 137.986L82.9783 137.806C82.8499 136.155 82.7216 134.504 82.6247 132.853C83.1091 133.818 84.102 135.632 85.7344 137.986ZM82.3244 127.346C82.1655 123.434 82.0694 119.518 82.0362 115.602C82.4334 115.619 82.8257 115.663 83.1987 115.727C87.4805 116.506 88.5994 122.219 85.2573 125.434C84.3854 126.262 83.3803 126.869 82.3244 127.346ZM107.606 146.969C106.521 145.362 104.795 144.519 102.562 144.519C101.629 144.519 100.808 144.67 100.29 144.792L93.0363 137.739C93.6394 137.323 94.0462 136.797 94.2691 136.152C94.3239 135.991 94.3661 135.825 94.395 135.655C100.145 135.277 104.988 134.588 109.084 133.746C111.07 136.405 113.988 140.073 117.858 144.336C113.104 145.693 109.139 146.623 107.606 146.969ZM78.7231 115.707C78.7691 119.918 78.8563 124.14 79.0427 128.349C78.7303 128.407 78.4227 128.479 78.1152 128.517C77.0738 128.66 76.0856 128.555 75.1459 128.27C75.0273 124.202 74.9498 120.124 74.8214 116.052C76.1244 115.98 77.4443 115.826 78.7231 115.707ZM74.6543 112.03C74.503 108.837 74.2526 105.651 73.9035 102.48C75.5088 102.215 77.1412 102.315 78.7158 102.774C78.6984 105.745 78.6944 108.716 78.7037 111.687C77.6405 111.757 76.6305 111.879 75.7417 111.975C75.3799 112.009 75.0172 112.027 74.6543 112.03ZM71.3315 111.522C71.1256 111.455 70.9222 111.402 70.7115 111.318C69.7424 110.924 68.8651 110.26 68.1516 109.38C66.0833 107.063 68.9217 104.791 70.7115 103.712C70.9924 106.299 71.1862 108.909 71.3315 111.522ZM98.0617 168.095C87.5484 161.649 81.9078 154.485 79.6676 151.166C81.2781 151.02 82.8015 150.846 84.3103 150.663L101.549 164.09L139.355 151.628C119.859 165.729 100.597 167.877 98.0617 168.095ZM129.285 145.164C128.975 144.792 128.604 144.351 128.166 143.819C132.467 142.255 136.628 140.442 139.73 138.448L141.617 137.23L139.703 136.062C139.275 135.797 138.856 135.312 138.849 135.129C138.853 135.059 139.023 134.687 139.757 134.182L141.157 133.217L139.912 131.973C139.873 131.935 135.991 128.067 134.627 125.576L134.177 124.762L133.404 125.033C133.397 125.033 132.733 125.262 131.871 125.262C130.539 125.265 129.541 124.742 128.902 123.713L128.195 122.589L127.308 123.504C127.262 123.55 124.518 126.25 117.158 128.802C116.916 128.383 116.682 127.957 116.458 127.523C125.383 124.277 129.943 120.348 131.92 118.197C135.092 126.433 142.646 133.068 145.925 135.67C140.657 139.495 135.082 142.676 129.285 145.164Z" fill="black"/>
<path d="M107.482 136.934C105.068 136.146 102.343 136.684 101.389 138.122C100.442 139.567 101.638 141.386 104.051 142.18C106.468 142.967 109.19 142.427 110.144 140.985C111.091 139.541 109.899 137.727 107.482 136.934Z" fill="black"/>
</svg>
